<svg width="534" height="2500" viewBox="0 0 534 2500" fill="none" xmlns="http://www.w3.org/2000/svg">
<style>
  @keyframes quirkyShake {
    0%, 100% { transform: translate(0, 0) rotate(0deg); }
    10% { transform: translate(-2px, -2px) rotate(-2deg); }
    20% { transform: translate(2px, 2px) rotate(2deg); }
    30% { transform: translate(-3px, 1px) rotate(-1deg); }
    40% { transform: translate(3px, -1px) rotate(1deg); }
    50% { transform: translate(-2px, 2px) rotate(-2deg); }
    60% { transform: translate(2px, -2px) rotate(2deg); }
    70% { transform: translate(-1px, 1px) rotate(-1deg); }
    80% { transform: translate(1px, -1px) rotate(1deg); }
    90% { transform: translate(-2px, 2px) rotate(-2deg); }
  }
  
  @keyframes wittyBounce {
    0%, 100% { transform: translateY(0) scale(1); }
    25% { transform: translateY(-5px) scale(1.05); }
    50% { transform: translateY(0) scale(1); }
    75% { transform: translateY(-3px) scale(1.02); }
  }
  
  @keyframes colorShift {
    0% { fill: white; }
    25% { fill: #FDFF6D; }
    50% { fill: #44F6FF; }
    75% { fill: #FF4CF0; }
    100% { fill: white; }
  }
  
  .quirky-text {
    animation: quirkyShake 0.5s ease-in-out;
    transform-origin: center;
  }
  
  .witty-text {
    animation: wittyBounce 0.5s ease-in-out 0.5s, colorShift 0.5s ease-in-out 0.5s;
    transform-origin: center;
  }
</style>
<rect x="0.5" y="0.5" width="533" height="2499" rx="4.5" stroke="#9747FF" stroke-dasharray="10 5"/>
<g class="quirky-text">
<path d="M42.2656 142.977C38.6523 142.977 35.3971 142.081 32.5 140.291C29.5703 138.501 27.2103 136.092 25.4199 133.064C23.6621 130.037 22.7832 126.652 22.7832 122.908V91.2188C22.7832 87.5729 23.6784 84.2526 25.4688 81.2578C27.2266 78.2305 29.5866 75.8216 32.5488 74.0312C35.5111 72.2083 38.75 71.2969 42.2656 71.2969C45.944 71.2969 49.2643 72.1758 52.2266 73.9336C55.1888 75.724 57.5326 78.1165 59.2578 81.1113C61.0156 84.1061 61.8945 87.4753 61.8945 91.2188V95.8086C61.8945 96.069 61.7318 96.1992 61.4062 96.1992H50.1758C49.9154 96.1992 49.7852 96.069 49.7852 95.8086V92C49.7852 89.4609 49.069 87.3613 47.6367 85.7012C46.2044 84.041 44.4141 83.2109 42.2656 83.2109C40.3451 83.2109 38.6361 84.0085 37.1387 85.6035C35.6413 87.1986 34.8926 89.0703 34.8926 91.2188V122.908C34.8926 125.089 35.625 126.977 37.0898 128.572C38.5547 130.135 40.2799 130.916 42.2656 130.916C44.4141 130.916 46.2044 130.151 47.6367 128.621C49.069 127.059 49.7852 125.154 49.7852 122.908V117.977H42.8027C42.4447 117.977 42.2656 117.814 42.2656 117.488V106.307C42.2656 105.981 42.4447 105.818 42.8027 105.818H61.5039C61.7643 105.818 61.8945 105.981 61.8945 106.307V122.908C61.8945 126.652 61.0156 130.037 59.2578 133.064C57.4674 136.092 55.1074 138.501 52.1777 140.291C49.248 142.081 45.944 142.977 42.2656 142.977ZM101.689 142H69.3652C69.1048 142 68.9746 141.837 68.9746 141.512L69.0723 72.8105C69.0723 72.5501 69.2025 72.4199 69.4629 72.4199H101.592C101.852 72.4199 101.982 72.5827 101.982 72.9082V84.0898C101.982 84.3503 101.852 84.4805 101.592 84.4805H81.084V100.105H101.592C101.852 100.105 101.982 100.236 101.982 100.496L102.08 111.824C102.08 112.085 101.95 112.215 101.689 112.215H81.084V129.695H101.689C101.95 129.695 102.08 129.858 102.08 130.184V141.609C102.08 141.87 101.95 142 101.689 142ZM132.305 142H121.025C120.732 142 120.586 141.837 120.586 141.512V84.4805H107.598C107.272 84.4805 107.109 84.3177 107.109 83.9922L107.207 72.8105C107.207 72.5501 107.337 72.4199 107.598 72.4199H145.586C145.944 72.4199 146.123 72.5501 146.123 72.8105V83.9922C146.123 84.3177 145.993 84.4805 145.732 84.4805H132.598L132.695 141.512C132.695 141.837 132.565 142 132.305 142Z" fill="white"/>
</g>
<g class="witty-text">
<path d="M56.8652 257.396L49.9805 250.414C47.5391 251.456 45.0326 251.977 42.4609 251.977C38.9128 251.977 35.6576 251.081 32.6953 249.291C29.7005 247.501 27.2917 245.076 25.4688 242.016C23.6784 238.923 22.7832 235.554 22.7832 231.908L22.8809 200.219C22.8809 196.671 23.7598 193.383 25.5176 190.355C27.2428 187.328 29.5866 184.903 32.5488 183.08C35.5111 181.225 38.8151 180.297 42.4609 180.297C46.0091 180.297 49.2643 181.176 52.2266 182.934C55.1888 184.724 57.5488 187.117 59.3066 190.111C61.097 193.106 61.9922 196.475 61.9922 200.219L62.0898 231.908C62.0898 233.829 61.8132 235.701 61.2598 237.523C60.7389 239.314 60.0391 240.974 59.1602 242.504L65.3613 248.803C65.6868 249.063 65.7194 249.291 65.459 249.486L57.5977 257.396C57.3698 257.592 57.1257 257.592 56.8652 257.396ZM42.4609 239.916C44.7396 239.916 46.5625 239.07 47.9297 237.377C49.2969 235.652 49.9805 233.829 49.9805 231.908L49.8828 200.219C49.8828 198.07 49.1829 196.215 47.7832 194.652C46.3835 193.09 44.6094 192.309 42.4609 192.309C40.2148 192.309 38.4082 193.106 37.041 194.701C35.6738 196.296 34.9902 198.135 34.9902 200.219V231.908C34.9902 234.317 35.7715 236.254 37.334 237.719C38.8965 239.184 40.6055 239.916 42.4609 239.916ZM88.9453 251.977C85.4297 251.977 82.1745 251.065 79.1797 249.242C76.1849 247.419 73.7923 244.978 72.002 241.918C70.2441 238.826 69.3652 235.456 69.3652 231.811L69.5605 181.811C69.5605 181.55 69.6908 181.42 69.9512 181.42H81.1816C81.4421 181.42 81.5723 181.55 81.5723 181.811V231.811C81.5723 234.057 82.2884 235.977 83.7207 237.572C85.153 239.135 86.8945 239.916 88.9453 239.916C91.0938 239.916 92.8841 239.135 94.3164 237.572C95.7487 235.977 96.4648 234.057 96.4648 231.811V181.811C96.4648 181.55 96.5951 181.42 96.8555 181.42H108.086C108.346 181.42 108.477 181.55 108.477 181.811L108.672 231.811C108.672 235.489 107.793 238.874 106.035 241.967C104.245 245.027 101.868 247.468 98.9062 249.291C95.944 251.081 92.6237 251.977 88.9453 251.977ZM128.35 251H117.021C116.696 251 116.533 250.837 116.533 250.512L116.631 181.811C116.631 181.55 116.761 181.42 117.021 181.42H128.252C128.512 181.42 128.643 181.55 128.643 181.811L128.74 250.512C128.74 250.837 128.61 251 128.35 251ZM149.248 251H137.92C137.66 251 137.529 250.837 137.529 250.512L137.725 181.811C137.725 181.55 137.855 181.42 138.115 181.42H158.33C161.943 181.42 165.264 182.299 168.291 184.057C171.318 185.814 173.727 188.174 175.518 191.137C177.34 194.099 178.252 197.452 178.252 201.195C178.252 203.637 177.878 205.85 177.129 207.836C176.38 209.822 175.501 211.498 174.492 212.865C173.516 214.232 172.62 215.242 171.807 215.893C175.42 219.896 177.227 224.6 177.227 230.004L177.324 250.512C177.324 250.837 177.161 251 176.836 251H165.508C165.247 251 165.117 250.902 165.117 250.707V230.004C165.117 227.595 164.271 225.512 162.578 223.754C160.885 221.996 158.802 221.117 156.328 221.117H149.736L149.639 250.512C149.639 250.837 149.508 251 149.248 251ZM158.33 193.383H149.736V209.105H158.33C160.381 209.105 162.204 208.34 163.799 206.811C165.426 205.281 166.24 203.409 166.24 201.195C166.24 199.079 165.459 197.257 163.896 195.727C162.334 194.164 160.479 193.383 158.33 193.383ZM197.49 251H186.162C185.902 251 185.771 250.837 185.771 250.512L185.967 181.908C185.967 181.583 186.097 181.42 186.357 181.42H197.588C197.848 181.42 197.979 181.583 197.979 181.908V205.59L213.652 181.811C213.913 181.55 214.157 181.42 214.385 181.42H225.859C226.152 181.42 226.217 181.55 226.055 181.811L208.77 209.398L228.154 250.609C228.317 250.87 228.154 251 227.666 251H215.459C215.133 251 214.938 250.87 214.873 250.609L201.348 221.215L197.881 226.684V250.512C197.881 250.837 197.751 251 197.49 251ZM253.496 251H242.021C241.794 251 241.68 250.87 241.68 250.609L241.777 222.191L228.398 181.811C228.333 181.55 228.431 181.42 228.691 181.42H239.824C240.15 181.42 240.345 181.55 240.41 181.811L247.783 208.715L255.303 181.811C255.368 181.55 255.531 181.42 255.791 181.42H267.021C267.282 181.42 267.38 181.55 267.314 181.811L253.789 221.801L253.887 250.609C253.887 250.87 253.757 251 253.496 251Z" fill="white"/>
</g>
<path d="M42.2656 452.977C38.6523 452.977 35.3971 452.081 32.5 450.291C29.5703 448.501 27.2103 446.092 25.4199 443.064C23.6621 440.037 22.7832 436.652 22.7832 432.908V401.219C22.7832 397.573 23.6784 394.253 25.4688 391.258C27.2266 388.23 29.5866 385.822 32.5488 384.031C35.5111 382.208 38.75 381.297 42.2656 381.297C45.944 381.297 49.2643 382.176 52.2266 383.934C55.1888 385.724 57.5326 388.117 59.2578 391.111C61.0156 394.106 61.8945 397.475 61.8945 401.219V405.809C61.8945 406.069 61.7318 406.199 61.4062 406.199H50.1758C49.9154 406.199 49.7852 406.069 49.7852 405.809V402C49.7852 399.461 49.069 397.361 47.6367 395.701C46.2044 394.041 44.4141 393.211 42.2656 393.211C40.3451 393.211 38.6361 394.008 37.1387 395.604C35.6413 397.199 34.8926 399.07 34.8926 401.219V432.908C34.8926 435.089 35.625 436.977 37.0898 438.572C38.5547 440.135 40.2799 440.916 42.2656 440.916C44.4141 440.916 46.2044 440.151 47.6367 438.621C49.069 437.059 49.7852 435.154 49.7852 432.908V427.977H42.8027C42.4447 427.977 42.2656 427.814 42.2656 427.488V416.307C42.2656 415.981 42.4447 415.818 42.8027 415.818H61.5039C61.7643 415.818 61.8945 415.981 61.8945 416.307V432.908C61.8945 436.652 61.0156 440.037 59.2578 443.064C57.4674 446.092 55.1074 448.501 52.1777 450.291C49.248 452.081 45.944 452.977 42.2656 452.977ZM101.689 452H69.3652C69.1048 452 68.9746 451.837 68.9746 451.512L69.0723 382.811C69.0723 382.55 69.2025 382.42 69.4629 382.42H101.592C101.852 382.42 101.982 382.583 101.982 382.908V394.09C101.982 394.35 101.852 394.48 101.592 394.48H81.084V410.105H101.592C101.852 410.105 101.982 410.236 101.982 410.496L102.08 421.824C102.08 422.085 101.95 422.215 101.689 422.215H81.084V439.695H101.689C101.95 439.695 102.08 439.858 102.08 440.184V451.609C102.08 451.87 101.95 452 101.689 452ZM132.305 452H121.025C120.732 452 120.586 451.837 120.586 451.512V394.48H107.598C107.272 394.48 107.109 394.318 107.109 393.992L107.207 382.811C107.207 382.55 107.337 382.42 107.598 382.42H145.586C145.944 382.42 146.123 382.55 146.123 382.811V393.992C146.123 394.318 145.993 394.48 145.732 394.48H132.598L132.695 451.512C132.695 451.837 132.565 452 132.305 452Z" fill="white"/>
<path d="M45.293 561H33.1836C32.8906 561 32.7279 560.837 32.6953 560.512L20.8789 491.811C20.8138 491.55 20.9115 491.42 21.1719 491.42H32.4023C32.6628 491.42 32.8255 491.55 32.8906 491.811L39.2871 536.977L45.8789 491.811C45.944 491.55 46.1393 491.42 46.4648 491.42H55.498C55.7585 491.42 55.9212 491.55 55.9863 491.811L62.4805 536.977L68.9746 491.811C69.0397 491.55 69.2025 491.42 69.4629 491.42H80.5957C80.9212 491.42 81.0514 491.55 80.9863 491.811L69.0723 560.512C69.0397 560.642 68.9421 560.756 68.7793 560.854L68.584 561H56.4746C56.2793 561 56.1165 560.837 55.9863 560.512L50.8594 524.623L45.7812 560.512C45.7487 560.837 45.5859 561 45.293 561ZM98.6621 561H87.334C87.0085 561 86.8457 560.837 86.8457 560.512L86.9434 491.811C86.9434 491.55 87.0736 491.42 87.334 491.42H98.5645C98.8249 491.42 98.9551 491.55 98.9551 491.811L99.0527 560.512C99.0527 560.837 98.9225 561 98.6621 561ZM129.18 561H117.9C117.607 561 117.461 560.837 117.461 560.512V503.48H104.473C104.147 503.48 103.984 503.318 103.984 502.992L104.082 491.811C104.082 491.55 104.212 491.42 104.473 491.42H142.461C142.819 491.42 142.998 491.55 142.998 491.811V502.992C142.998 503.318 142.868 503.48 142.607 503.48H129.473L129.57 560.512C129.57 560.837 129.44 561 129.18 561ZM169.219 561H157.939C157.646 561 157.5 560.837 157.5 560.512V503.48H144.512C144.186 503.48 144.023 503.318 144.023 502.992L144.121 491.811C144.121 491.55 144.251 491.42 144.512 491.42H182.5C182.858 491.42 183.037 491.55 183.037 491.811V502.992C183.037 503.318 182.907 503.48 182.646 503.48H169.512L169.609 560.512C169.609 560.837 169.479 561 169.219 561ZM208.77 561H197.295C197.067 561 196.953 560.87 196.953 560.609L197.051 532.191L183.672 491.811C183.607 491.55 183.704 491.42 183.965 491.42H195.098C195.423 491.42 195.618 491.55 195.684 491.811L203.057 518.715L210.576 491.811C210.641 491.55 210.804 491.42 211.064 491.42H222.295C222.555 491.42 222.653 491.55 222.588 491.811L209.062 531.801L209.16 560.609C209.16 560.87 209.03 561 208.77 561Z" fill="white"/>
<path d="M42.2656 762.977C38.6523 762.977 35.3971 762.081 32.5 760.291C29.5703 758.501 27.2103 756.092 25.4199 753.064C23.6621 750.037 22.7832 746.652 22.7832 742.908V711.219C22.7832 707.573 23.6784 704.253 25.4688 701.258C27.2266 698.23 29.5866 695.822 32.5488 694.031C35.5111 692.208 38.75 691.297 42.2656 691.297C45.944 691.297 49.2643 692.176 52.2266 693.934C55.1888 695.724 57.5326 698.117 59.2578 701.111C61.0156 704.106 61.8945 707.475 61.8945 711.219V715.809C61.8945 716.069 61.7318 716.199 61.4062 716.199H50.1758C49.9154 716.199 49.7852 716.069 49.7852 715.809V712C49.7852 709.461 49.069 707.361 47.6367 705.701C46.2044 704.041 44.4141 703.211 42.2656 703.211C40.3451 703.211 38.6361 704.008 37.1387 705.604C35.6413 707.199 34.8926 709.07 34.8926 711.219V742.908C34.8926 745.089 35.625 746.977 37.0898 748.572C38.5547 750.135 40.2799 750.916 42.2656 750.916C44.4141 750.916 46.2044 750.151 47.6367 748.621C49.069 747.059 49.7852 745.154 49.7852 742.908V737.977H42.8027C42.4447 737.977 42.2656 737.814 42.2656 737.488V726.307C42.2656 725.981 42.4447 725.818 42.8027 725.818H61.5039C61.7643 725.818 61.8945 725.981 61.8945 726.307V742.908C61.8945 746.652 61.0156 750.037 59.2578 753.064C57.4674 756.092 55.1074 758.501 52.1777 760.291C49.248 762.081 45.944 762.977 42.2656 762.977ZM101.689 762H69.3652C69.1048 762 68.9746 761.837 68.9746 761.512L69.0723 692.811C69.0723 692.55 69.2025 692.42 69.4629 692.42H101.592C101.852 692.42 101.982 692.583 101.982 692.908V704.09C101.982 704.35 101.852 704.48 101.592 704.48H81.084V720.105H101.592C101.852 720.105 101.982 720.236 101.982 720.496L102.08 731.824C102.08 732.085 101.95 732.215 101.689 732.215H81.084V749.695H101.689C101.95 749.695 102.08 749.858 102.08 750.184V761.609C102.08 761.87 101.95 762 101.689 762ZM132.305 762H121.025C120.732 762 120.586 761.837 120.586 761.512V704.48H107.598C107.272 704.48 107.109 704.318 107.109 703.992L107.207 692.811C107.207 692.55 107.337 692.42 107.598 692.42H145.586C145.944 692.42 146.123 692.55 146.123 692.811V703.992C146.123 704.318 145.993 704.48 145.732 704.48H132.598L132.695 761.512C132.695 761.837 132.565 762 132.305 762Z" fill="white"/>
<path d="M42.3633 871.977C38.8477 871.977 35.5924 871.065 32.5977 869.242C29.6029 867.419 27.2103 864.978 25.4199 861.918C23.6621 858.826 22.7832 855.456 22.7832 851.811L22.9785 801.811C22.9785 801.55 23.1087 801.42 23.3691 801.42H34.5996C34.86 801.42 34.9902 801.55 34.9902 801.811V851.811C34.9902 854.057 35.7064 855.977 37.1387 857.572C38.571 859.135 40.3125 859.916 42.3633 859.916C44.5117 859.916 46.3021 859.135 47.7344 857.572C49.1667 855.977 49.8828 854.057 49.8828 851.811V801.811C49.8828 801.55 50.013 801.42 50.2734 801.42H61.5039C61.7643 801.42 61.8945 801.55 61.8945 801.811L62.0898 851.811C62.0898 855.489 61.2109 858.874 59.4531 861.967C57.6628 865.027 55.2865 867.468 52.3242 869.291C49.362 871.081 46.0417 871.977 42.3633 871.977ZM80.8398 871H70.8301C70.3092 871 70.0488 870.772 70.0488 870.316L69.9512 802.201C69.9512 801.68 70.2116 801.42 70.7324 801.42H79.7656L96.6602 840.824L96.1719 802.201C96.1719 801.68 96.4648 801.42 97.0508 801.42H106.963C107.354 801.42 107.549 801.68 107.549 802.201L107.646 870.414C107.646 870.805 107.484 871 107.158 871H98.3691L81.0352 834.184L81.7676 870.219C81.7676 870.74 81.4583 871 80.8398 871ZM128.057 871H116.826C116.501 871 116.338 870.837 116.338 870.512L116.533 801.811C116.533 801.55 116.663 801.42 116.924 801.42H148.955C149.281 801.42 149.443 801.55 149.443 801.811V813.09C149.443 813.35 149.313 813.48 149.053 813.48H128.545V829.008H149.053C149.313 829.008 149.443 829.171 149.443 829.496L149.541 840.824C149.541 841.085 149.378 841.215 149.053 841.215H128.545V870.512C128.545 870.837 128.382 871 128.057 871ZM170.244 871H158.916C158.59 871 158.428 870.837 158.428 870.512L158.525 801.811C158.525 801.55 158.656 801.42 158.916 801.42H170.146C170.407 801.42 170.537 801.55 170.537 801.811L170.635 870.512C170.635 870.837 170.505 871 170.244 871ZM212.139 871H179.814C179.554 871 179.424 870.837 179.424 870.512L179.521 801.908C179.521 801.583 179.684 801.42 180.01 801.42H191.143C191.468 801.42 191.631 801.583 191.631 801.908L191.533 858.695H212.139C212.464 858.695 212.627 858.858 212.627 859.184V870.512C212.627 870.837 212.464 871 212.139 871ZM240.508 871H229.229C228.936 871 228.789 870.837 228.789 870.512V813.48H215.801C215.475 813.48 215.312 813.318 215.312 812.992L215.41 801.811C215.41 801.55 215.54 801.42 215.801 801.42H253.789C254.147 801.42 254.326 801.55 254.326 801.811V812.992C254.326 813.318 254.196 813.48 253.936 813.48H240.801L240.898 870.512C240.898 870.837 240.768 871 240.508 871ZM291.924 871H259.6C259.339 871 259.209 870.837 259.209 870.512L259.307 801.811C259.307 801.55 259.437 801.42 259.697 801.42H291.826C292.087 801.42 292.217 801.583 292.217 801.908V813.09C292.217 813.35 292.087 813.48 291.826 813.48H271.318V829.105H291.826C292.087 829.105 292.217 829.236 292.217 829.496L292.314 840.824C292.314 841.085 292.184 841.215 291.924 841.215H271.318V858.695H291.924C292.184 858.695 292.314 858.858 292.314 859.184V870.609C292.314 870.87 292.184 871 291.924 871ZM312.92 871H301.592C301.331 871 301.201 870.837 301.201 870.512L301.396 801.811C301.396 801.55 301.527 801.42 301.787 801.42H322.002C325.615 801.42 328.936 802.299 331.963 804.057C334.99 805.814 337.399 808.174 339.189 811.137C341.012 814.099 341.924 817.452 341.924 821.195C341.924 823.637 341.549 825.85 340.801 827.836C340.052 829.822 339.173 831.498 338.164 832.865C337.188 834.232 336.292 835.242 335.479 835.893C339.092 839.896 340.898 844.6 340.898 850.004L340.996 870.512C340.996 870.837 340.833 871 340.508 871H329.18C328.919 871 328.789 870.902 328.789 870.707V850.004C328.789 847.595 327.943 845.512 326.25 843.754C324.557 841.996 322.474 841.117 320 841.117H313.408L313.311 870.512C313.311 870.837 313.18 871 312.92 871ZM322.002 813.383H313.408V829.105H322.002C324.053 829.105 325.876 828.34 327.471 826.811C329.098 825.281 329.912 823.409 329.912 821.195C329.912 819.079 329.131 817.257 327.568 815.727C326.006 814.164 324.15 813.383 322.002 813.383ZM382.158 871H349.834C349.574 871 349.443 870.837 349.443 870.512L349.541 801.811C349.541 801.55 349.671 801.42 349.932 801.42H382.061C382.321 801.42 382.451 801.583 382.451 801.908V813.09C382.451 813.35 382.321 813.48 382.061 813.48H361.553V829.105H382.061C382.321 829.105 382.451 829.236 382.451 829.496L382.549 840.824C382.549 841.085 382.419 841.215 382.158 841.215H361.553V858.695H382.158C382.419 858.695 382.549 858.858 382.549 859.184V870.609C382.549 870.87 382.419 871 382.158 871ZM409.844 870.902L391.924 871C391.598 871 391.436 870.837 391.436 870.512L391.631 801.811C391.631 801.55 391.761 801.42 392.021 801.42L410.723 801.322C414.434 801.225 417.786 802.071 420.781 803.861C423.809 805.652 426.217 808.077 428.008 811.137C429.831 814.164 430.742 817.517 430.742 821.195V849.906C430.742 853.747 429.814 857.263 427.959 860.453C426.071 863.611 423.564 866.133 420.439 868.021C417.314 869.877 413.783 870.837 409.844 870.902ZM410.723 813.285L403.74 813.383L403.643 858.695H409.844C412.318 858.695 414.401 857.833 416.094 856.107C417.786 854.382 418.633 852.315 418.633 849.906V821.098C418.633 818.982 417.852 817.143 416.289 815.58C414.727 813.985 412.871 813.22 410.723 813.285Z" fill="white"/>
<path d="M42.2656 1072.98C38.6523 1072.98 35.3971 1072.08 32.5 1070.29C29.5703 1068.5 27.2103 1066.09 25.4199 1063.06C23.6621 1060.04 22.7832 1056.65 22.7832 1052.91V1021.22C22.7832 1017.57 23.6784 1014.25 25.4688 1011.26C27.2266 1008.23 29.5866 1005.82 32.5488 1004.03C35.5111 1002.21 38.75 1001.3 42.2656 1001.3C45.944 1001.3 49.2643 1002.18 52.2266 1003.93C55.1888 1005.72 57.5326 1008.12 59.2578 1011.11C61.0156 1014.11 61.8945 1017.48 61.8945 1021.22V1025.81C61.8945 1026.07 61.7318 1026.2 61.4062 1026.2H50.1758C49.9154 1026.2 49.7852 1026.07 49.7852 1025.81V1022C49.7852 1019.46 49.069 1017.36 47.6367 1015.7C46.2044 1014.04 44.4141 1013.21 42.2656 1013.21C40.3451 1013.21 38.6361 1014.01 37.1387 1015.6C35.6413 1017.2 34.8926 1019.07 34.8926 1021.22V1052.91C34.8926 1055.09 35.625 1056.98 37.0898 1058.57C38.5547 1060.13 40.2799 1060.92 42.2656 1060.92C44.4141 1060.92 46.2044 1060.15 47.6367 1058.62C49.069 1057.06 49.7852 1055.15 49.7852 1052.91V1047.98H42.8027C42.4447 1047.98 42.2656 1047.81 42.2656 1047.49V1036.31C42.2656 1035.98 42.4447 1035.82 42.8027 1035.82H61.5039C61.7643 1035.82 61.8945 1035.98 61.8945 1036.31V1052.91C61.8945 1056.65 61.0156 1060.04 59.2578 1063.06C57.4674 1066.09 55.1074 1068.5 52.1777 1070.29C49.248 1072.08 45.944 1072.98 42.2656 1072.98ZM101.689 1072H69.3652C69.1048 1072 68.9746 1071.84 68.9746 1071.51L69.0723 1002.81C69.0723 1002.55 69.2025 1002.42 69.4629 1002.42H101.592C101.852 1002.42 101.982 1002.58 101.982 1002.91V1014.09C101.982 1014.35 101.852 1014.48 101.592 1014.48H81.084V1030.11H101.592C101.852 1030.11 101.982 1030.24 101.982 1030.5L102.08 1041.82C102.08 1042.08 101.95 1042.21 101.689 1042.21H81.084V1059.7H101.689C101.95 1059.7 102.08 1059.86 102.08 1060.18V1071.61C102.08 1071.87 101.95 1072 101.689 1072ZM132.305 1072H121.025C120.732 1072 120.586 1071.84 120.586 1071.51V1014.48H107.598C107.272 1014.48 107.109 1014.32 107.109 1013.99L107.207 1002.81C107.207 1002.55 107.337 1002.42 107.598 1002.42H145.586C145.944 1002.42 146.123 1002.55 146.123 1002.81V1013.99C146.123 1014.32 145.993 1014.48 145.732 1014.48H132.598L132.695 1071.51C132.695 1071.84 132.565 1072 132.305 1072Z" fill="white"/>
<path d="M42.2656 1181H24.3457C24.0853 1181 23.9551 1180.84 23.9551 1180.51L24.1504 1111.81C24.1504 1111.55 24.2806 1111.42 24.541 1111.42H43.7793C47.5228 1111.42 50.9245 1112.33 53.9844 1114.15C56.9792 1115.98 59.3392 1118.4 61.0645 1121.43C62.7897 1124.42 63.6523 1127.68 63.6523 1131.2C63.6523 1134.06 63.0013 1136.73 61.6992 1139.2C60.3971 1141.68 58.8509 1143.68 57.0605 1145.21C58.9811 1147.13 60.4785 1149.36 61.5527 1151.9C62.627 1154.44 63.1641 1157.11 63.1641 1159.91C63.1641 1163.78 62.2363 1167.31 60.3809 1170.5C58.4928 1173.69 55.9701 1176.25 52.8125 1178.17C49.6549 1180.06 46.1393 1181 42.2656 1181ZM43.7793 1123.29H36.1621V1139.01H43.7793C46.0905 1139.01 47.9622 1138.19 49.3945 1136.57C50.8268 1134.91 51.543 1133.12 51.543 1131.2C51.543 1129.08 50.778 1127.24 49.248 1125.68C47.7181 1124.08 45.8952 1123.29 43.7793 1123.29ZM42.2656 1151.12H36.1621L36.0645 1168.79H42.2656C44.6745 1168.79 46.7415 1167.91 48.4668 1166.16C50.1921 1164.4 51.0547 1162.32 51.0547 1159.91C51.0547 1157.5 50.1921 1155.43 48.4668 1153.71C46.7415 1151.98 44.6745 1151.12 42.2656 1151.12ZM103.057 1181H70.7324C70.472 1181 70.3418 1180.84 70.3418 1180.51L70.4395 1111.81C70.4395 1111.55 70.5697 1111.42 70.8301 1111.42H102.959C103.219 1111.42 103.35 1111.58 103.35 1111.91V1123.09C103.35 1123.35 103.219 1123.48 102.959 1123.48H82.4512V1139.11H102.959C103.219 1139.11 103.35 1139.24 103.35 1139.5L103.447 1150.82C103.447 1151.08 103.317 1151.21 103.057 1151.21H82.4512V1168.7H103.057C103.317 1168.7 103.447 1168.86 103.447 1169.18V1180.61C103.447 1180.87 103.317 1181 103.057 1181ZM145.049 1181H112.725C112.464 1181 112.334 1180.84 112.334 1180.51L112.432 1111.81C112.432 1111.55 112.562 1111.42 112.822 1111.42H144.951C145.212 1111.42 145.342 1111.58 145.342 1111.91V1123.09C145.342 1123.35 145.212 1123.48 144.951 1123.48H124.443V1139.11H144.951C145.212 1139.11 145.342 1139.24 145.342 1139.5L145.439 1150.82C145.439 1151.08 145.309 1151.21 145.049 1151.21H124.443V1168.7H145.049C145.309 1168.7 145.439 1168.86 145.439 1169.18V1180.61C145.439 1180.87 145.309 1181 145.049 1181ZM166.045 1181H154.814C154.489 1181 154.326 1180.84 154.326 1180.51L154.521 1111.81C154.521 1111.55 154.652 1111.42 154.912 1111.42H174.15C180.27 1111.42 185.104 1113.29 188.652 1117.04C192.233 1120.75 194.023 1125.81 194.023 1132.22C194.023 1136.91 193.096 1140.99 191.24 1144.48C189.352 1147.93 186.911 1150.6 183.916 1152.48C180.921 1154.37 177.666 1155.32 174.15 1155.32H166.533V1180.51C166.533 1180.84 166.37 1181 166.045 1181ZM174.15 1123.29L166.533 1123.38V1143.21H174.15C176.266 1143.21 178.105 1142.2 179.668 1140.18C181.23 1138.13 182.012 1135.48 182.012 1132.22C182.012 1129.62 181.312 1127.48 179.912 1125.82C178.512 1124.13 176.592 1123.29 174.15 1123.29ZM233.525 1181H201.201C200.941 1181 200.811 1180.84 200.811 1180.51L200.908 1111.81C200.908 1111.55 201.038 1111.42 201.299 1111.42H233.428C233.688 1111.42 233.818 1111.58 233.818 1111.91V1123.09C233.818 1123.35 233.688 1123.48 233.428 1123.48H212.92V1139.11H233.428C233.688 1139.11 233.818 1139.24 233.818 1139.5L233.916 1150.82C233.916 1151.08 233.786 1151.21 233.525 1151.21H212.92V1168.7H233.525C233.786 1168.7 233.916 1168.86 233.916 1169.18V1180.61C233.916 1180.87 233.786 1181 233.525 1181ZM261.211 1180.9L243.291 1181C242.965 1181 242.803 1180.84 242.803 1180.51L242.998 1111.81C242.998 1111.55 243.128 1111.42 243.389 1111.42L262.09 1111.32C265.801 1111.22 269.154 1112.07 272.148 1113.86C275.176 1115.65 277.585 1118.08 279.375 1121.14C281.198 1124.16 282.109 1127.52 282.109 1131.2V1159.91C282.109 1163.75 281.182 1167.26 279.326 1170.45C277.438 1173.61 274.932 1176.13 271.807 1178.02C268.682 1179.88 265.15 1180.84 261.211 1180.9ZM262.09 1123.29L255.107 1123.38L255.01 1168.7H261.211C263.685 1168.7 265.768 1167.83 267.461 1166.11C269.154 1164.38 270 1162.32 270 1159.91V1131.1C270 1128.98 269.219 1127.14 267.656 1125.58C266.094 1123.99 264.238 1123.22 262.09 1123.29ZM301.689 1181H290.361C290.101 1181 289.971 1180.87 289.971 1180.61V1169.28C289.971 1169.02 290.101 1168.89 290.361 1168.89H301.689C301.95 1168.89 302.08 1169.02 302.08 1169.28V1180.61C302.08 1180.87 301.95 1181 301.689 1181Z" fill="white"/>
<rect x="20" y="1109.43" width="40.2854" height="71.6489" fill="white"/>
<rect x="20" y="1181.07" width="40.2854" height="14.9269" fill="#3415FF"/>
<rect x="60.2852" y="1109.43" width="40.2854" height="71.6489" fill="#FDFF6D"/>
<rect x="60.2852" y="1181.07" width="40.2854" height="14.9269" fill="black"/>
<rect x="100.57" y="1109.43" width="40.2854" height="71.6489" fill="#44F6FF"/>
<rect x="100.57" y="1181.07" width="40.2854" height="14.9269" fill="#FF4CF0"/>
<rect x="140.855" y="1109.43" width="40.2854" height="71.6489" fill="#55FF55"/>
<rect x="140.855" y="1181.07" width="40.2854" height="14.9269" fill="black"/>
<rect x="181.141" y="1109.43" width="40.2854" height="71.6489" fill="#FF4CF0"/>
<rect x="181.141" y="1181.07" width="40.2854" height="14.9269" fill="#44F6FF"/>
<rect x="221.428" y="1109.43" width="40.2854" height="71.6489" fill="#FF171B"/>
<rect x="221.428" y="1181.07" width="40.2854" height="14.9269" fill="black"/>
<rect x="261.715" y="1109.43" width="40.2854" height="71.6489" fill="#3415FF"/>
<rect x="261.715" y="1181.07" width="40.2854" height="14.9269" fill="white"/>
<path d="M42.2656 1692.98C38.6523 1692.98 35.3971 1692.08 32.5 1690.29C29.5703 1688.5 27.2103 1686.09 25.4199 1683.06C23.6621 1680.04 22.7832 1676.65 22.7832 1672.91V1641.22C22.7832 1637.57 23.6784 1634.25 25.4688 1631.26C27.2266 1628.23 29.5866 1625.82 32.5488 1624.03C35.5111 1622.21 38.75 1621.3 42.2656 1621.3C45.944 1621.3 49.2643 1622.18 52.2266 1623.93C55.1888 1625.72 57.5326 1628.12 59.2578 1631.11C61.0156 1634.11 61.8945 1637.48 61.8945 1641.22V1645.81C61.8945 1646.07 61.7318 1646.2 61.4062 1646.2H50.1758C49.9154 1646.2 49.7852 1646.07 49.7852 1645.81V1642C49.7852 1639.46 49.069 1637.36 47.6367 1635.7C46.2044 1634.04 44.4141 1633.21 42.2656 1633.21C40.3451 1633.21 38.6361 1634.01 37.1387 1635.6C35.6413 1637.2 34.8926 1639.07 34.8926 1641.22V1672.91C34.8926 1675.09 35.625 1676.98 37.0898 1678.57C38.5547 1680.13 40.2799 1680.92 42.2656 1680.92C44.4141 1680.92 46.2044 1680.15 47.6367 1678.62C49.069 1677.06 49.7852 1675.15 49.7852 1672.91V1667.98H42.8027C42.4447 1667.98 42.2656 1667.81 42.2656 1667.49V1656.31C42.2656 1655.98 42.4447 1655.82 42.8027 1655.82H61.5039C61.7643 1655.82 61.8945 1655.98 61.8945 1656.31V1672.91C61.8945 1676.65 61.0156 1680.04 59.2578 1683.06C57.4674 1686.09 55.1074 1688.5 52.1777 1690.29C49.248 1692.08 45.944 1692.98 42.2656 1692.98ZM101.689 1692H69.3652C69.1048 1692 68.9746 1691.84 68.9746 1691.51L69.0723 1622.81C69.0723 1622.55 69.2025 1622.42 69.4629 1622.42H101.592C101.852 1622.42 101.982 1622.58 101.982 1622.91V1634.09C101.982 1634.35 101.852 1634.48 101.592 1634.48H81.084V1650.11H101.592C101.852 1650.11 101.982 1650.24 101.982 1650.5L102.08 1661.82C102.08 1662.08 101.95 1662.21 101.689 1662.21H81.084V1679.7H101.689C101.95 1679.7 102.08 1679.86 102.08 1680.18V1691.61C102.08 1691.87 101.95 1692 101.689 1692ZM132.305 1692H121.025C120.732 1692 120.586 1691.84 120.586 1691.51V1634.48H107.598C107.272 1634.48 107.109 1634.32 107.109 1633.99L107.207 1622.81C107.207 1622.55 107.337 1622.42 107.598 1622.42H145.586C145.944 1622.42 146.123 1622.55 146.123 1622.81V1633.99C146.123 1634.32 145.993 1634.48 145.732 1634.48H132.598L132.695 1691.51C132.695 1691.84 132.565 1692 132.305 1692Z" fill="white"/>
<path d="M42.2656 1801H24.3457C24.0853 1801 23.9551 1800.84 23.9551 1800.51L24.1504 1731.81C24.1504 1731.55 24.2806 1731.42 24.541 1731.42H43.7793C47.5228 1731.42 50.9245 1732.33 53.9844 1734.15C56.9792 1735.98 59.3392 1738.4 61.0645 1741.43C62.7897 1744.42 63.6523 1747.68 63.6523 1751.2C63.6523 1754.06 63.0013 1756.73 61.6992 1759.2C60.3971 1761.68 58.8509 1763.68 57.0605 1765.21C58.9811 1767.13 60.4785 1769.36 61.5527 1771.9C62.627 1774.44 63.1641 1777.11 63.1641 1779.91C63.1641 1783.78 62.2363 1787.31 60.3809 1790.5C58.4928 1793.69 55.9701 1796.25 52.8125 1798.17C49.6549 1800.06 46.1393 1801 42.2656 1801ZM43.7793 1743.29H36.1621V1759.01H43.7793C46.0905 1759.01 47.9622 1758.19 49.3945 1756.57C50.8268 1754.91 51.543 1753.12 51.543 1751.2C51.543 1749.08 50.778 1747.24 49.248 1745.68C47.7181 1744.08 45.8952 1743.29 43.7793 1743.29ZM42.2656 1771.12H36.1621L36.0645 1788.79H42.2656C44.6745 1788.79 46.7415 1787.91 48.4668 1786.16C50.1921 1784.4 51.0547 1782.32 51.0547 1779.91C51.0547 1777.5 50.1921 1775.43 48.4668 1773.71C46.7415 1771.98 44.6745 1771.12 42.2656 1771.12ZM103.057 1801H70.7324C70.472 1801 70.3418 1800.84 70.3418 1800.51L70.4395 1731.81C70.4395 1731.55 70.5697 1731.42 70.8301 1731.42H102.959C103.219 1731.42 103.35 1731.58 103.35 1731.91V1743.09C103.35 1743.35 103.219 1743.48 102.959 1743.48H82.4512V1759.11H102.959C103.219 1759.11 103.35 1759.24 103.35 1759.5L103.447 1770.82C103.447 1771.08 103.317 1771.21 103.057 1771.21H82.4512V1788.7H103.057C103.317 1788.7 103.447 1788.86 103.447 1789.18V1800.61C103.447 1800.87 103.317 1801 103.057 1801ZM145.049 1801H112.725C112.464 1801 112.334 1800.84 112.334 1800.51L112.432 1731.81C112.432 1731.55 112.562 1731.42 112.822 1731.42H144.951C145.212 1731.42 145.342 1731.58 145.342 1731.91V1743.09C145.342 1743.35 145.212 1743.48 144.951 1743.48H124.443V1759.11H144.951C145.212 1759.11 145.342 1759.24 145.342 1759.5L145.439 1770.82C145.439 1771.08 145.309 1771.21 145.049 1771.21H124.443V1788.7H145.049C145.309 1788.7 145.439 1788.86 145.439 1789.18V1800.61C145.439 1800.87 145.309 1801 145.049 1801ZM166.045 1801H154.814C154.489 1801 154.326 1800.84 154.326 1800.51L154.521 1731.81C154.521 1731.55 154.652 1731.42 154.912 1731.42H174.15C180.27 1731.42 185.104 1733.29 188.652 1737.04C192.233 1740.75 194.023 1745.81 194.023 1752.22C194.023 1756.91 193.096 1760.99 191.24 1764.48C189.352 1767.93 186.911 1770.6 183.916 1772.48C180.921 1774.37 177.666 1775.32 174.15 1775.32H166.533V1800.51C166.533 1800.84 166.37 1801 166.045 1801ZM174.15 1743.29L166.533 1743.38V1763.21H174.15C176.266 1763.21 178.105 1762.2 179.668 1760.18C181.23 1758.13 182.012 1755.48 182.012 1752.22C182.012 1749.62 181.312 1747.48 179.912 1745.82C178.512 1744.13 176.592 1743.29 174.15 1743.29ZM233.525 1801H201.201C200.941 1801 200.811 1800.84 200.811 1800.51L200.908 1731.81C200.908 1731.55 201.038 1731.42 201.299 1731.42H233.428C233.688 1731.42 233.818 1731.58 233.818 1731.91V1743.09C233.818 1743.35 233.688 1743.48 233.428 1743.48H212.92V1759.11H233.428C233.688 1759.11 233.818 1759.24 233.818 1759.5L233.916 1770.82C233.916 1771.08 233.786 1771.21 233.525 1771.21H212.92V1788.7H233.525C233.786 1788.7 233.916 1788.86 233.916 1789.18V1800.61C233.916 1800.87 233.786 1801 233.525 1801ZM261.211 1800.9L243.291 1801C242.965 1801 242.803 1800.84 242.803 1800.51L242.998 1731.81C242.998 1731.55 243.128 1731.42 243.389 1731.42L262.09 1731.32C265.801 1731.22 269.154 1732.07 272.148 1733.86C275.176 1735.65 277.585 1738.08 279.375 1741.14C281.198 1744.16 282.109 1747.52 282.109 1751.2V1779.91C282.109 1783.75 281.182 1787.26 279.326 1790.45C277.438 1793.61 274.932 1796.13 271.807 1798.02C268.682 1799.88 265.15 1800.84 261.211 1800.9ZM262.09 1743.29L255.107 1743.38L255.01 1788.7H261.211C263.685 1788.7 265.768 1787.83 267.461 1786.11C269.154 1784.38 270 1782.32 270 1779.91V1751.1C270 1748.98 269.219 1747.14 267.656 1745.58C266.094 1743.99 264.238 1743.22 262.09 1743.29ZM301.689 1801H290.361C290.101 1801 289.971 1800.87 289.971 1800.61V1789.28C289.971 1789.02 290.101 1788.89 290.361 1788.89H301.689C301.95 1788.89 302.08 1789.02 302.08 1789.28V1800.61C302.08 1800.87 301.95 1801 301.689 1801Z" fill="white"/>
<path d="M42.2656 2312.98C38.6523 2312.98 35.3971 2312.08 32.5 2310.29C29.5703 2308.5 27.2103 2306.09 25.4199 2303.06C23.6621 2300.04 22.7832 2296.65 22.7832 2292.91V2261.22C22.7832 2257.57 23.6784 2254.25 25.4688 2251.26C27.2266 2248.23 29.5866 2245.82 32.5488 2244.03C35.5111 2242.21 38.75 2241.3 42.2656 2241.3C45.944 2241.3 49.2643 2242.18 52.2266 2243.93C55.1888 2245.72 57.5326 2248.12 59.2578 2251.11C61.0156 2254.11 61.8945 2257.48 61.8945 2261.22V2265.81C61.8945 2266.07 61.7318 2266.2 61.4062 2266.2H50.1758C49.9154 2266.2 49.7852 2266.07 49.7852 2265.81V2262C49.7852 2259.46 49.069 2257.36 47.6367 2255.7C46.2044 2254.04 44.4141 2253.21 42.2656 2253.21C40.3451 2253.21 38.6361 2254.01 37.1387 2255.6C35.6413 2257.2 34.8926 2259.07 34.8926 2261.22V2292.91C34.8926 2295.09 35.625 2296.98 37.0898 2298.57C38.5547 2300.13 40.2799 2300.92 42.2656 2300.92C44.4141 2300.92 46.2044 2300.15 47.6367 2298.62C49.069 2297.06 49.7852 2295.15 49.7852 2292.91V2287.98H42.8027C42.4447 2287.98 42.2656 2287.81 42.2656 2287.49V2276.31C42.2656 2275.98 42.4447 2275.82 42.8027 2275.82H61.5039C61.7643 2275.82 61.8945 2275.98 61.8945 2276.31V2292.91C61.8945 2296.65 61.0156 2300.04 59.2578 2303.06C57.4674 2306.09 55.1074 2308.5 52.1777 2310.29C49.248 2312.08 45.944 2312.98 42.2656 2312.98ZM101.689 2312H69.3652C69.1048 2312 68.9746 2311.84 68.9746 2311.51L69.0723 2242.81C69.0723 2242.55 69.2025 2242.42 69.4629 2242.42H101.592C101.852 2242.42 101.982 2242.58 101.982 2242.91V2254.09C101.982 2254.35 101.852 2254.48 101.592 2254.48H81.084V2270.11H101.592C101.852 2270.11 101.982 2270.24 101.982 2270.5L102.08 2281.82C102.08 2282.08 101.95 2282.21 101.689 2282.21H81.084V2299.7H101.689C101.95 2299.7 102.08 2299.86 102.08 2300.18V2311.61C102.08 2311.87 101.95 2312 101.689 2312ZM132.305 2312H121.025C120.732 2312 120.586 2311.84 120.586 2311.51V2254.48H107.598C107.272 2254.48 107.109 2254.32 107.109 2253.99L107.207 2242.81C107.207 2242.55 107.337 2242.42 107.598 2242.42H145.586C145.944 2242.42 146.123 2242.55 146.123 2242.81V2253.99C146.123 2254.32 145.993 2254.48 145.732 2254.48H132.598L132.695 2311.51C132.695 2311.84 132.565 2312 132.305 2312Z" fill="white"/>
<path d="M42.2656 2421H24.3457C24.0853 2421 23.9551 2420.84 23.9551 2420.51L24.1504 2351.81C24.1504 2351.55 24.2806 2351.42 24.541 2351.42H43.7793C47.5228 2351.42 50.9245 2352.33 53.9844 2354.15C56.9792 2355.98 59.3392 2358.4 61.0645 2361.43C62.7897 2364.42 63.6523 2367.68 63.6523 2371.2C63.6523 2374.06 63.0013 2376.73 61.6992 2379.2C60.3971 2381.68 58.8509 2383.68 57.0605 2385.21C58.9811 2387.13 60.4785 2389.36 61.5527 2391.9C62.627 2394.44 63.1641 2397.11 63.1641 2399.91C63.1641 2403.78 62.2363 2407.31 60.3809 2410.5C58.4928 2413.69 55.9701 2416.25 52.8125 2418.17C49.6549 2420.06 46.1393 2421 42.2656 2421ZM43.7793 2363.29H36.1621V2379.01H43.7793C46.0905 2379.01 47.9622 2378.19 49.3945 2376.57C50.8268 2374.91 51.543 2373.12 51.543 2371.2C51.543 2369.08 50.778 2367.24 49.248 2365.68C47.7181 2364.08 45.8952 2363.29 43.7793 2363.29ZM42.2656 2391.12H36.1621L36.0645 2408.79H42.2656C44.6745 2408.79 46.7415 2407.91 48.4668 2406.16C50.1921 2404.4 51.0547 2402.32 51.0547 2399.91C51.0547 2397.5 50.1921 2395.43 48.4668 2393.71C46.7415 2391.98 44.6745 2391.12 42.2656 2391.12ZM103.057 2421H70.7324C70.472 2421 70.3418 2420.84 70.3418 2420.51L70.4395 2351.81C70.4395 2351.55 70.5697 2351.42 70.8301 2351.42H102.959C103.219 2351.42 103.35 2351.58 103.35 2351.91V2363.09C103.35 2363.35 103.219 2363.48 102.959 2363.48H82.4512V2379.11H102.959C103.219 2379.11 103.35 2379.24 103.35 2379.5L103.447 2390.82C103.447 2391.08 103.317 2391.21 103.057 2391.21H82.4512V2408.7H103.057C103.317 2408.7 103.447 2408.86 103.447 2409.18V2420.61C103.447 2420.87 103.317 2421 103.057 2421ZM145.049 2421H112.725C112.464 2421 112.334 2420.84 112.334 2420.51L112.432 2351.81C112.432 2351.55 112.562 2351.42 112.822 2351.42H144.951C145.212 2351.42 145.342 2351.58 145.342 2351.91V2363.09C145.342 2363.35 145.212 2363.48 144.951 2363.48H124.443V2379.11H144.951C145.212 2379.11 145.342 2379.24 145.342 2379.5L145.439 2390.82C145.439 2391.08 145.309 2391.21 145.049 2391.21H124.443V2408.7H145.049C145.309 2408.7 145.439 2408.86 145.439 2409.18V2420.61C145.439 2420.87 145.309 2421 145.049 2421ZM166.045 2421H154.814C154.489 2421 154.326 2420.84 154.326 2420.51L154.521 2351.81C154.521 2351.55 154.652 2351.42 154.912 2351.42H174.15C180.27 2351.42 185.104 2353.29 188.652 2357.04C192.233 2360.75 194.023 2365.81 194.023 2372.22C194.023 2376.91 193.096 2380.99 191.24 2384.48C189.352 2387.93 186.911 2390.6 183.916 2392.48C180.921 2394.37 177.666 2395.32 174.15 2395.32H166.533V2420.51C166.533 2420.84 166.37 2421 166.045 2421ZM174.15 2363.29L166.533 2363.38V2383.21H174.15C176.266 2383.21 178.105 2382.2 179.668 2380.18C181.23 2378.13 182.012 2375.48 182.012 2372.22C182.012 2369.62 181.312 2367.48 179.912 2365.82C178.512 2364.13 176.592 2363.29 174.15 2363.29ZM233.525 2421H201.201C200.941 2421 200.811 2420.84 200.811 2420.51L200.908 2351.81C200.908 2351.55 201.038 2351.42 201.299 2351.42H233.428C233.688 2351.42 233.818 2351.58 233.818 2351.91V2363.09C233.818 2363.35 233.688 2363.48 233.428 2363.48H212.92V2379.11H233.428C233.688 2379.11 233.818 2379.24 233.818 2379.5L233.916 2390.82C233.916 2391.08 233.786 2391.21 233.525 2391.21H212.92V2408.7H233.525C233.786 2408.7 233.916 2408.86 233.916 2409.18V2420.61C233.916 2420.87 233.786 2421 233.525 2421ZM261.211 2420.9L243.291 2421C242.965 2421 242.803 2420.84 242.803 2420.51L242.998 2351.81C242.998 2351.55 243.128 2351.42 243.389 2351.42L262.09 2351.32C265.801 2351.22 269.154 2352.07 272.148 2353.86C275.176 2355.65 277.585 2358.08 279.375 2361.14C281.198 2364.16 282.109 2367.52 282.109 2371.2V2399.91C282.109 2403.75 281.182 2407.26 279.326 2410.45C277.438 2413.61 274.932 2416.13 271.807 2418.02C268.682 2419.88 265.15 2420.84 261.211 2420.9ZM262.09 2363.29L255.107 2363.38L255.01 2408.7H261.211C263.685 2408.7 265.768 2407.83 267.461 2406.11C269.154 2404.38 270 2402.32 270 2399.91V2371.1C270 2368.98 269.219 2367.14 267.656 2365.58C266.094 2363.99 264.238 2363.22 262.09 2363.29ZM301.689 2421H290.361C290.101 2421 289.971 2420.87 289.971 2420.61V2409.28C289.971 2409.02 290.101 2408.89 290.361 2408.89H301.689C301.95 2408.89 302.08 2409.02 302.08 2409.28V2420.61C302.08 2420.87 301.95 2421 301.689 2421Z" fill="white"/>
<path d="M42.2656 1382.98C38.6523 1382.98 35.3971 1382.08 32.5 1380.29C29.5703 1378.5 27.2103 1376.09 25.4199 1373.06C23.6621 1370.04 22.7832 1366.65 22.7832 1362.91V1331.22C22.7832 1327.57 23.6784 1324.25 25.4688 1321.26C27.2266 1318.23 29.5866 1315.82 32.5488 1314.03C35.5111 1312.21 38.75 1311.3 42.2656 1311.3C45.944 1311.3 49.2643 1312.18 52.2266 1313.93C55.1888 1315.72 57.5326 1318.12 59.2578 1321.11C61.0156 1324.11 61.8945 1327.48 61.8945 1331.22V1335.81C61.8945 1336.07 61.7318 1336.2 61.4062 1336.2H50.1758C49.9154 1336.2 49.7852 1336.07 49.7852 1335.81V1332C49.7852 1329.46 49.069 1327.36 47.6367 1325.7C46.2044 1324.04 44.4141 1323.21 42.2656 1323.21C40.3451 1323.21 38.6361 1324.01 37.1387 1325.6C35.6413 1327.2 34.8926 1329.07 34.8926 1331.22V1362.91C34.8926 1365.09 35.625 1366.98 37.0898 1368.57C38.5547 1370.13 40.2799 1370.92 42.2656 1370.92C44.4141 1370.92 46.2044 1370.15 47.6367 1368.62C49.069 1367.06 49.7852 1365.15 49.7852 1362.91V1357.98H42.8027C42.4447 1357.98 42.2656 1357.81 42.2656 1357.49V1346.31C42.2656 1345.98 42.4447 1345.82 42.8027 1345.82H61.5039C61.7643 1345.82 61.8945 1345.98 61.8945 1346.31V1362.91C61.8945 1366.65 61.0156 1370.04 59.2578 1373.06C57.4674 1376.09 55.1074 1378.5 52.1777 1380.29C49.248 1382.08 45.944 1382.98 42.2656 1382.98ZM101.689 1382H69.3652C69.1048 1382 68.9746 1381.84 68.9746 1381.51L69.0723 1312.81C69.0723 1312.55 69.2025 1312.42 69.4629 1312.42H101.592C101.852 1312.42 101.982 1312.58 101.982 1312.91V1324.09C101.982 1324.35 101.852 1324.48 101.592 1324.48H81.084V1340.11H101.592C101.852 1340.11 101.982 1340.24 101.982 1340.5L102.08 1351.82C102.08 1352.08 101.95 1352.21 101.689 1352.21H81.084V1369.7H101.689C101.95 1369.7 102.08 1369.86 102.08 1370.18V1381.61C102.08 1381.87 101.95 1382 101.689 1382ZM132.305 1382H121.025C120.732 1382 120.586 1381.84 120.586 1381.51V1324.48H107.598C107.272 1324.48 107.109 1324.32 107.109 1323.99L107.207 1312.81C107.207 1312.55 107.337 1312.42 107.598 1312.42H145.586C145.944 1312.42 146.123 1312.55 146.123 1312.81V1323.99C146.123 1324.32 145.993 1324.48 145.732 1324.48H132.598L132.695 1381.51C132.695 1381.84 132.565 1382 132.305 1382Z" fill="white"/>
<mask id="mask0_624_11" style="mask-type:alpha" maskUnits="userSpaceOnUse" x="23" y="1421" width="280" height="70">
<path d="M42.2656 1491H24.3457C24.0853 1491 23.9551 1490.84 23.9551 1490.51L24.1504 1421.81C24.1504 1421.55 24.2806 1421.42 24.541 1421.42H43.7793C47.5228 1421.42 50.9245 1422.33 53.9844 1424.15C56.9792 1425.98 59.3392 1428.4 61.0645 1431.43C62.7897 1434.42 63.6523 1437.68 63.6523 1441.2C63.6523 1444.06 63.0013 1446.73 61.6992 1449.2C60.3971 1451.68 58.8509 1453.68 57.0605 1455.21C58.9811 1457.13 60.4785 1459.36 61.5527 1461.9C62.627 1464.44 63.1641 1467.11 63.1641 1469.91C63.1641 1473.78 62.2363 1477.31 60.3809 1480.5C58.4928 1483.69 55.9701 1486.25 52.8125 1488.17C49.6549 1490.06 46.1393 1491 42.2656 1491ZM43.7793 1433.28H36.1621V1449.01H43.7793C46.0905 1449.01 47.9622 1448.19 49.3945 1446.57C50.8268 1444.91 51.543 1443.12 51.543 1441.2C51.543 1439.08 50.778 1437.24 49.248 1435.68C47.7181 1434.08 45.8952 1433.28 43.7793 1433.28ZM42.2656 1461.12H36.1621L36.0645 1478.79H42.2656C44.6745 1478.79 46.7415 1477.91 48.4668 1476.16C50.1921 1474.4 51.0547 1472.31 51.0547 1469.91C51.0547 1467.5 50.1921 1465.43 48.4668 1463.7C46.7415 1461.98 44.6745 1461.12 42.2656 1461.12Z" fill="white"/>
<path d="M103.057 1491H70.7324C70.472 1491 70.3418 1490.84 70.3418 1490.51L70.4395 1421.81C70.4395 1421.55 70.5697 1421.42 70.8301 1421.42H102.959C103.219 1421.42 103.35 1421.58 103.35 1421.91V1433.09C103.35 1433.35 103.219 1433.48 102.959 1433.48H82.4512V1449.11H102.959C103.219 1449.11 103.35 1449.24 103.35 1449.5L103.447 1460.82C103.447 1461.08 103.317 1461.21 103.057 1461.21H82.4512V1478.7H103.057C103.317 1478.7 103.447 1478.86 103.447 1479.18V1490.61C103.447 1490.87 103.317 1491 103.057 1491Z" fill="white"/>
<path d="M145.049 1491H112.725C112.464 1491 112.334 1490.84 112.334 1490.51L112.432 1421.81C112.432 1421.55 112.562 1421.42 112.822 1421.42H144.951C145.212 1421.42 145.342 1421.58 145.342 1421.91V1433.09C145.342 1433.35 145.212 1433.48 144.951 1433.48H124.443V1449.11H144.951C145.212 1449.11 145.342 1449.24 145.342 1449.5L145.439 1460.82C145.439 1461.08 145.309 1461.21 145.049 1461.21H124.443V1478.7H145.049C145.309 1478.7 145.439 1478.86 145.439 1479.18V1490.61C145.439 1490.87 145.309 1491 145.049 1491Z" fill="white"/>
<path d="M166.045 1491H154.814C154.489 1491 154.326 1490.84 154.326 1490.51L154.521 1421.81C154.521 1421.55 154.652 1421.42 154.912 1421.42H174.15C180.27 1421.42 185.104 1423.29 188.652 1427.03C192.233 1430.75 194.023 1435.81 194.023 1442.22C194.023 1446.91 193.096 1450.99 191.24 1454.48C189.352 1457.93 186.911 1460.6 183.916 1462.48C180.921 1464.37 177.666 1465.32 174.15 1465.32H166.533V1490.51C166.533 1490.84 166.37 1491 166.045 1491ZM174.15 1433.28L166.533 1433.38V1453.21H174.15C176.266 1453.21 178.105 1452.2 179.668 1450.18C181.23 1448.13 182.012 1445.48 182.012 1442.22C182.012 1439.62 181.312 1437.48 179.912 1435.82C178.512 1434.13 176.592 1433.28 174.15 1433.28Z" fill="white"/>
<path d="M233.525 1491H201.201C200.941 1491 200.811 1490.84 200.811 1490.51L200.908 1421.81C200.908 1421.55 201.038 1421.42 201.299 1421.42H233.428C233.688 1421.42 233.818 1421.58 233.818 1421.91V1433.09C233.818 1433.35 233.688 1433.48 233.428 1433.48H212.92V1449.11H233.428C233.688 1449.11 233.818 1449.24 233.818 1449.5L233.916 1460.82C233.916 1461.08 233.786 1461.21 233.525 1461.21H212.92V1478.7H233.525C233.786 1478.7 233.916 1478.86 233.916 1479.18V1490.61C233.916 1490.87 233.786 1491 233.525 1491Z" fill="white"/>
<path d="M261.211 1490.9L243.291 1491C242.965 1491 242.803 1490.84 242.803 1490.51L242.998 1421.81C242.998 1421.55 243.128 1421.42 243.389 1421.42L262.09 1421.32C265.801 1421.22 269.154 1422.07 272.148 1423.86C275.176 1425.65 277.585 1428.08 279.375 1431.14C281.198 1434.16 282.109 1437.52 282.109 1441.2V1469.91C282.109 1473.75 281.182 1477.26 279.326 1480.45C277.438 1483.61 274.932 1486.13 271.807 1488.02C268.682 1489.88 265.15 1490.84 261.211 1490.9ZM262.09 1433.28L255.107 1433.38L255.01 1478.7H261.211C263.685 1478.7 265.768 1477.83 267.461 1476.11C269.154 1474.38 270 1472.31 270 1469.91V1441.1C270 1438.98 269.219 1437.14 267.656 1435.58C266.094 1433.98 264.238 1433.22 262.09 1433.28Z" fill="white"/>
<path d="M301.689 1491H290.361C290.101 1491 289.971 1490.87 289.971 1490.61V1479.28C289.971 1479.02 290.101 1478.89 290.361 1478.89H301.689C301.95 1478.89 302.08 1479.02 302.08 1479.28V1490.61C302.08 1490.87 301.95 1491 301.689 1491Z" fill="white"/>
</mask>
<g mask="url(#mask0_624_11)">
<rect x="25" y="1420" width="40.1422" height="81.9303" fill="white"/>
<rect x="65.1416" y="1420" width="40.1422" height="81.9303" fill="#FDFF6D"/>
<rect x="105.284" y="1420" width="40.1422" height="81.9303" fill="#44F6FF"/>
<rect x="145.426" y="1420" width="40.1422" height="81.9303" fill="#55FF55"/>
<rect x="185.577" y="1420" width="40.1422" height="81.9303" fill="#FF4CF0"/>
<rect x="225.719" y="1420" width="40.1422" height="81.9303" fill="#FF171B"/>
<rect x="265.857" y="1420" width="40.1422" height="81.9303" fill="#3415FF"/>
</g>
<path d="M42.2656 2002.98C38.6523 2002.98 35.3971 2002.08 32.5 2000.29C29.5703 1998.5 27.2103 1996.09 25.4199 1993.06C23.6621 1990.04 22.7832 1986.65 22.7832 1982.91V1951.22C22.7832 1947.57 23.6784 1944.25 25.4688 1941.26C27.2266 1938.23 29.5866 1935.82 32.5488 1934.03C35.5111 1932.21 38.75 1931.3 42.2656 1931.3C45.944 1931.3 49.2643 1932.18 52.2266 1933.93C55.1888 1935.72 57.5326 1938.12 59.2578 1941.11C61.0156 1944.11 61.8945 1947.48 61.8945 1951.22V1955.81C61.8945 1956.07 61.7318 1956.2 61.4062 1956.2H50.1758C49.9154 1956.2 49.7852 1956.07 49.7852 1955.81V1952C49.7852 1949.46 49.069 1947.36 47.6367 1945.7C46.2044 1944.04 44.4141 1943.21 42.2656 1943.21C40.3451 1943.21 38.6361 1944.01 37.1387 1945.6C35.6413 1947.2 34.8926 1949.07 34.8926 1951.22V1982.91C34.8926 1985.09 35.625 1986.98 37.0898 1988.57C38.5547 1990.13 40.2799 1990.92 42.2656 1990.92C44.4141 1990.92 46.2044 1990.15 47.6367 1988.62C49.069 1987.06 49.7852 1985.15 49.7852 1982.91V1977.98H42.8027C42.4447 1977.98 42.2656 1977.81 42.2656 1977.49V1966.31C42.2656 1965.98 42.4447 1965.82 42.8027 1965.82H61.5039C61.7643 1965.82 61.8945 1965.98 61.8945 1966.31V1982.91C61.8945 1986.65 61.0156 1990.04 59.2578 1993.06C57.4674 1996.09 55.1074 1998.5 52.1777 2000.29C49.248 2002.08 45.944 2002.98 42.2656 2002.98ZM101.689 2002H69.3652C69.1048 2002 68.9746 2001.84 68.9746 2001.51L69.0723 1932.81C69.0723 1932.55 69.2025 1932.42 69.4629 1932.42H101.592C101.852 1932.42 101.982 1932.58 101.982 1932.91V1944.09C101.982 1944.35 101.852 1944.48 101.592 1944.48H81.084V1960.11H101.592C101.852 1960.11 101.982 1960.24 101.982 1960.5L102.08 1971.82C102.08 1972.08 101.95 1972.21 101.689 1972.21H81.084V1989.7H101.689C101.95 1989.7 102.08 1989.86 102.08 1990.18V2001.61C102.08 2001.87 101.95 2002 101.689 2002ZM132.305 2002H121.025C120.732 2002 120.586 2001.84 120.586 2001.51V1944.48H107.598C107.272 1944.48 107.109 1944.32 107.109 1943.99L107.207 1932.81C107.207 1932.55 107.337 1932.42 107.598 1932.42H145.586C145.944 1932.42 146.123 1932.55 146.123 1932.81V1943.99C146.123 1944.32 145.993 1944.48 145.732 1944.48H132.598L132.695 2001.51C132.695 2001.84 132.565 2002 132.305 2002Z" fill="white"/>
<mask id="mask1_624_11" style="mask-type:alpha" maskUnits="userSpaceOnUse" x="23" y="2041" width="280" height="70">
<path d="M42.2656 2111H24.3457C24.0853 2111 23.9551 2110.84 23.9551 2110.51L24.1504 2041.81C24.1504 2041.55 24.2806 2041.42 24.541 2041.42H43.7793C47.5228 2041.42 50.9245 2042.33 53.9844 2044.15C56.9792 2045.98 59.3392 2048.4 61.0645 2051.43C62.7897 2054.42 63.6523 2057.68 63.6523 2061.2C63.6523 2064.06 63.0013 2066.73 61.6992 2069.2C60.3971 2071.68 58.8509 2073.68 57.0605 2075.21C58.9811 2077.13 60.4785 2079.36 61.5527 2081.9C62.627 2084.44 63.1641 2087.11 63.1641 2089.91C63.1641 2093.78 62.2363 2097.31 60.3809 2100.5C58.4928 2103.69 55.9701 2106.25 52.8125 2108.17C49.6549 2110.06 46.1393 2111 42.2656 2111ZM43.7793 2053.28H36.1621V2069.01H43.7793C46.0905 2069.01 47.9622 2068.19 49.3945 2066.57C50.8268 2064.91 51.543 2063.12 51.543 2061.2C51.543 2059.08 50.778 2057.24 49.248 2055.68C47.7181 2054.08 45.8952 2053.28 43.7793 2053.28ZM42.2656 2081.12H36.1621L36.0645 2098.79H42.2656C44.6745 2098.79 46.7415 2097.91 48.4668 2096.16C50.1921 2094.4 51.0547 2092.31 51.0547 2089.91C51.0547 2087.5 50.1921 2085.43 48.4668 2083.7C46.7415 2081.98 44.6745 2081.12 42.2656 2081.12Z" fill="white"/>
<path d="M103.057 2111H70.7324C70.472 2111 70.3418 2110.84 70.3418 2110.51L70.4395 2041.81C70.4395 2041.55 70.5697 2041.42 70.8301 2041.42H102.959C103.219 2041.42 103.35 2041.58 103.35 2041.91V2053.09C103.35 2053.35 103.219 2053.48 102.959 2053.48H82.4512V2069.11H102.959C103.219 2069.11 103.35 2069.24 103.35 2069.5L103.447 2080.82C103.447 2081.08 103.317 2081.21 103.057 2081.21H82.4512V2098.7H103.057C103.317 2098.7 103.447 2098.86 103.447 2099.18V2110.61C103.447 2110.87 103.317 2111 103.057 2111Z" fill="white"/>
<path d="M145.049 2111H112.725C112.464 2111 112.334 2110.84 112.334 2110.51L112.432 2041.81C112.432 2041.55 112.562 2041.42 112.822 2041.42H144.951C145.212 2041.42 145.342 2041.58 145.342 2041.91V2053.09C145.342 2053.35 145.212 2053.48 144.951 2053.48H124.443V2069.11H144.951C145.212 2069.11 145.342 2069.24 145.342 2069.5L145.439 2080.82C145.439 2081.08 145.309 2081.21 145.049 2081.21H124.443V2098.7H145.049C145.309 2098.7 145.439 2098.86 145.439 2099.18V2110.61C145.439 2110.87 145.309 2111 145.049 2111Z" fill="white"/>
<path d="M166.045 2111H154.814C154.489 2111 154.326 2110.84 154.326 2110.51L154.521 2041.81C154.521 2041.55 154.652 2041.42 154.912 2041.42H174.15C180.27 2041.42 185.104 2043.29 188.652 2047.03C192.233 2050.75 194.023 2055.81 194.023 2062.22C194.023 2066.91 193.096 2070.99 191.24 2074.48C189.352 2077.93 186.911 2080.6 183.916 2082.48C180.921 2084.37 177.666 2085.32 174.15 2085.32H166.533V2110.51C166.533 2110.84 166.37 2111 166.045 2111ZM174.15 2053.28L166.533 2053.38V2073.21H174.15C176.266 2073.21 178.105 2072.2 179.668 2070.18C181.23 2068.13 182.012 2065.48 182.012 2062.22C182.012 2059.62 181.312 2057.48 179.912 2055.82C178.512 2054.13 176.592 2053.28 174.15 2053.28Z" fill="white"/>
<path d="M233.525 2111H201.201C200.941 2111 200.811 2110.84 200.811 2110.51L200.908 2041.81C200.908 2041.55 201.038 2041.42 201.299 2041.42H233.428C233.688 2041.42 233.818 2041.58 233.818 2041.91V2053.09C233.818 2053.35 233.688 2053.48 233.428 2053.48H212.92V2069.11H233.428C233.688 2069.11 233.818 2069.24 233.818 2069.5L233.916 2080.82C233.916 2081.08 233.786 2081.21 233.525 2081.21H212.92V2098.7H233.525C233.786 2098.7 233.916 2098.86 233.916 2099.18V2110.61C233.916 2110.87 233.786 2111 233.525 2111Z" fill="white"/>
<path d="M261.211 2110.9L243.291 2111C242.965 2111 242.803 2110.84 242.803 2110.51L242.998 2041.81C242.998 2041.55 243.128 2041.42 243.389 2041.42L262.09 2041.32C265.801 2041.22 269.154 2042.07 272.148 2043.86C275.176 2045.65 277.585 2048.08 279.375 2051.14C281.198 2054.16 282.109 2057.52 282.109 2061.2V2089.91C282.109 2093.75 281.182 2097.26 279.326 2100.45C277.438 2103.61 274.932 2106.13 271.807 2108.02C268.682 2109.88 265.15 2110.84 261.211 2110.9ZM262.09 2053.28L255.107 2053.38L255.01 2098.7H261.211C263.685 2098.7 265.768 2097.83 267.461 2096.11C269.154 2094.38 270 2092.31 270 2089.91V2061.1C270 2058.98 269.219 2057.14 267.656 2055.58C266.094 2053.98 264.238 2053.22 262.09 2053.28Z" fill="white"/>
<path d="M301.689 2111H290.361C290.101 2111 289.971 2110.87 289.971 2110.61V2099.28C289.971 2099.02 290.101 2098.89 290.361 2098.89H301.689C301.95 2098.89 302.08 2099.02 302.08 2099.28V2110.61C302.08 2110.87 301.95 2111 301.689 2111Z" fill="white"/>
</mask>
<g mask="url(#mask1_624_11)">
<rect x="25" y="2040" width="40.1422" height="81.9303" fill="white"/>
<rect x="65.1416" y="2040" width="40.1422" height="81.9303" fill="#FDFF6D"/>
<rect x="105.284" y="2040" width="40.1422" height="81.9303" fill="#44F6FF"/>
<rect x="145.426" y="2040" width="40.1422" height="81.9303" fill="#55FF55"/>
<rect x="185.577" y="2040" width="40.1422" height="81.9303" fill="#FF4CF0"/>
<rect x="225.719" y="2040" width="40.1422" height="81.9303" fill="#FF171B"/>
<rect x="265.857" y="2040" width="40.1422" height="81.9303" fill="#3415FF"/>
</g>
<rect x="20" y="2039.43" width="40.2854" height="71.6489" fill="white"/>
<rect x="20" y="2111.07" width="40.2854" height="14.9269" fill="#3415FF"/>
<rect x="60.2852" y="2039.43" width="40.2854" height="71.6489" fill="#FDFF6D"/>
<rect x="60.2852" y="2111.07" width="40.2854" height="14.9269" fill="black"/>
<rect x="100.57" y="2039.43" width="40.2854" height="71.6489" fill="#44F6FF"/>
<rect x="100.57" y="2111.07" width="40.2854" height="14.9269" fill="#FF4CF0"/>
<rect x="140.855" y="2039.43" width="40.2854" height="71.6489" fill="#55FF55"/>
<rect x="140.855" y="2111.07" width="40.2854" height="14.9269" fill="black"/>
<rect x="181.141" y="2039.43" width="40.2854" height="71.6489" fill="#FF4CF0"/>
<rect x="181.141" y="2111.07" width="40.2854" height="14.9269" fill="#44F6FF"/>
<rect x="221.428" y="2039.43" width="40.2854" height="71.6489" fill="#FF171B"/>
<rect x="221.428" y="2111.07" width="40.2854" height="14.9269" fill="black"/>
<rect x="261.715" y="2039.43" width="40.2854" height="71.6489" fill="#3415FF"/>
<rect x="261.715" y="2111.07" width="40.2854" height="14.9269" fill="white"/>
</svg>
